# xmcd
#
# Track frame offsets: 
#        150
#        11292
#        22202
#        32495
#        47537
#        58415
#        80075
#        96670
#        107022
#        117395
#        130202
#        146930
#        169917
#        180980
#        195775
#        216560
#        232087
#
# Disc length: 3369 seconds
#
# Revision: 0
# Processed by: cddbd v1.5.1PL0 Copyright (c) Steve Scherf et al.
# Submitted via: ExactAudioCopy v0.95a5
#
DISCID=f80d2711
DTITLE=Various Artist - Country Legends 1
DYEAR=1990
DGENRE=Country
TTITLE0=Memories To Burn - Gene Watson
TTITLE1=You're Out Doin' (What I'm Here Doin' Without) - Gene Watson
TTITLE2=Drinkin' My Way Back Home - Gene Watson
TTITLE3=Carmen - Gene Watson
TTITLE4=Farewell Party - Gene Watson
TTITLE5=If I Said You Had A Beautiful Body Would You Hold It Against M
TTITLE5=e - Bellamy Brothers
TTITLE6=Redneck Girl - Bellamy Brothers
TTITLE7=Sugar Daddy - Bellamy Brothers
TTITLE8=Let Your Love Flow - Bellamy Brothers
TTITLE9=San Antonio Stroll - Tanya Tucker
TTITLE10=The Night They Drove Old Dixie Down - Tanya Tucker
TTITLE11=Texas When I Die - Tanya Tucker
TTITLE12=Pecos Promenade - Tanya Tucker
TTITLE13=Whats Your Mama's Name - Tanya Tucker
TTITLE14=Baby I'm Yours - Tanya Tucker
TTITLE15=You Are So Beautiful - Tanya Tucker
TTITLE16=Delta Dawn - Tanya Tucker
EXTD=
EXTT0=
EXTT1=
EXTT2=
EXTT3=
EXTT4=
EXTT5=
EXTT6=
EXTT7=
EXTT8=
EXTT9=
EXTT10=
EXTT11=
EXTT12=
EXTT13=
EXTT14=
EXTT15=
EXTT16=
PLAYORDER=
